<?xml version="1.0" encoding="utf-8"?>
<!-- Generator: Adobe Illustrator 27.5.0, SVG Export Plug-In . SVG Version: 6.00 Build 0)  -->
<svg version="1.1" id="Layer_1" xmlns="http://www.w3.org/2000/svg" xmlns:xlink="http://www.w3.org/1999/xlink" x="0px" y="0px"
	 viewBox="0 0 4000 4000" style="enable-background:new 0 0 4000 4000;" xml:space="preserve">
<g>
	<g>
		<rect style="fill:#FFD9FF;" width="4000" height="4000"/>
	</g>
	<g>
		<g>
			<g>
				<path style="fill:#EA3248;" d="M1129.714,2810.636c0,0-103.927-51.052-133.099-125.806
					c-29.172-74.755,51.65-901.901,95.11-984.26c43.46-82.359,217.564-50.596,217.564-50.596l-33.712,1188.011L1129.714,2810.636z"
					/>
			</g>
			<g style="opacity:0.3;">
				<path style="fill:#010173;" d="M1165.551,2798.48c0,0-83.187-49.545-106.538-122.092
					c-23.351-72.548,41.343-875.277,76.13-955.205c34.787-79.928,174.146-49.102,174.146-49.102l-26.984,1152.942L1165.551,2798.48z
					"/>
			</g>
			<g>
				<path style="fill:#010173;" d="M1275.575,2856.618c-1.143,0-2.29-0.103-3.432-0.317l-145.859-27.349
					c-1.66-0.313-3.267-0.845-4.78-1.592c-4.512-2.212-110.801-55.171-142.246-135.757c-22.275-57.07,12.026-424.732,19.126-497.852
					c19.561-201.399,51.431-453.682,76.86-501.878c49.272-93.386,229.722-61.626,237.388-60.232
					c9.053,1.653,15.542,9.663,15.283,18.86l-33.711,1188.01c-0.156,5.449-2.69,10.557-6.934,13.979
					C1283.93,2855.182,1279.794,2856.618,1275.575,2856.618z M1135.805,2792.819l121.763,22.832l32.627-1149.741
					c-52.803-6.743-154.707-8.345-181.992,43.357c-40.596,76.941-120.737,900.867-94.229,968.792
					C1037.944,2739.484,1121.342,2785.26,1135.805,2792.819z"/>
			</g>
		</g>
		<g>
			<g>
				<path style="fill:#EA3248;" d="M2870.285,2810.636c0,0,103.927-51.052,133.1-125.806c29.173-74.755-51.65-901.901-95.11-984.26
					c-43.46-82.359-217.564-50.596-217.564-50.596l33.712,1188.011L2870.285,2810.636z"/>
			</g>
			<g style="opacity:0.3;">
				<path style="fill:#010173;" d="M2834.449,2798.48c0,0,83.187-49.545,106.538-122.092
					c23.351-72.548-41.343-875.277-76.129-955.205c-34.787-79.928-174.146-49.102-174.146-49.102l26.984,1152.942L2834.449,2798.48z
					"/>
			</g>
			<g>
				<path style="fill:#010173;" d="M2724.423,2856.618c-4.224,0-8.354-1.436-11.694-4.126c-4.243-3.423-6.777-8.53-6.934-13.979
					l-33.711-1188.01c-0.259-9.197,6.23-17.207,15.283-18.86c7.651-1.394,188.11-33.152,237.388,60.232
					c25.43,48.196,57.3,300.479,76.86,501.878c7.1,73.12,41.401,440.781,19.126,497.852
					c-31.445,80.586-137.729,133.545-142.236,135.757c-1.519,0.747-3.125,1.279-4.785,1.592l-145.864,27.349
					C2726.713,2856.515,2725.566,2856.618,2724.423,2856.618z M2709.804,1665.91l32.627,1149.741l121.768-22.832
					c14.458-7.559,97.856-53.335,121.826-114.761c26.509-67.925-53.633-891.851-94.229-968.792
					C2864.516,1657.565,2762.612,1659.172,2709.804,1665.91z M2870.287,2810.636h0.049H2870.287z M2870.287,2810.636h0.049H2870.287
					z"/>
			</g>
		</g>
		<g>
			<g>
				<path style="fill:#FFB83C;" d="M1443.526,3198.257c0,0-131.421,92.771-155.828,159.032
					c-24.407,66.261,144.563,16.289,144.563,16.289s9.387,78.133,82.607,100.662c73.22,22.529,129.543-65.71,129.543-65.71
					s97.627,54.446,153.95,52.568c56.323-1.877,48.813-127.666,48.813-127.666S1693.226,3132.547,1443.526,3198.257z"/>
			</g>
			<g style="opacity:0.4;">
				<path style="fill:#FFFFFF;" d="M1309.289,3337.657c0,0,60.078-26.284,91.056-49.283c30.978-22.999,97.158-85.893,96.688-87.301
					s-52.884,0-57.42,0c-4.536,0-36.451,16.428-36.451,16.428L1309.289,3337.657z"/>
			</g>
			<g style="opacity:0.3;">
				<path style="fill:#010173;" d="M1293.788,3344.015c0,0,98.108-4.011,138.473-17.153s15.372,43.234,29.1,84.485
					c13.728,41.251,105.137-2.978,136.115-54.057c30.978-51.079,97.627,13.531,132.36,0c34.733-13.531,0-112.096,0-112.096
					s68.527,15.02,97.627,50.691s20.046,61.405,20.046,61.405s14.687,102.871-49.146,103.81s-153.95-52.568-153.95-52.568
					s-74.767,79.251-133.837,64.267c-59.07-14.984-77.375-83.98-81.599-87.5c-4.224-3.521-4.224-3.521-4.224-3.521
					s-83.882,19.499-117.625,7.989S1293.788,3344.015,1293.788,3344.015z"/>
			</g>
			<g>
				<path style="fill:#010173;" d="M1539.384,3496.642c-9.614,0-19.634-1.406-29.995-4.595
					c-59.316-18.247-82.349-67.031-90.903-95.303c-44.282,11.504-116.592,24.79-142.129-2.476
					c-5.933-6.338-14.624-20.4-6.142-43.418c26.108-70.889,157.007-163.892,162.563-167.817c1.821-1.284,3.853-2.231,6.006-2.798
					c135.273-35.596,243.149,4.824,309.824,45.01c71.899,43.33,111.699,94.688,113.359,96.855c2.261,2.949,3.589,6.509,3.809,10.224
					c0.561,9.4,4.526,92.91-28.721,129.404c-10.278,11.284-23.443,17.505-38.071,17.993c-1.099,0.039-2.227,0.054-3.354,0.054
					c-47.583,0.005-115.977-32.061-145.703-47.246C1631.948,3455.055,1591.669,3496.642,1539.384,3496.642z M1432.255,3354.948
					c3.603,0,7.173,1.045,10.249,3.066c4.58,3.018,7.603,7.896,8.257,13.344c0.337,2.632,9.219,66.494,69.585,85.073
					c58.643,18.027,107.886-57.192,108.379-57.954c5.318-8.267,16.172-11.006,24.761-6.221
					c25.928,14.438,102.178,51.621,144.258,50.22c4.59-0.156,8.218-1.958,11.763-5.85c16.108-17.676,20.313-65.918,19.341-96.162
					c-10.806-12.725-45.952-51.289-100.649-84.009c-86.733-51.875-179.8-65.679-276.67-41.021
					c-37.212,26.685-128.447,99.702-146.343,148.296c-1.108,3.003-1.265,4.697-1.265,5.405
					c10.171,8.848,69.316,2.441,123.062-13.428C1428.71,3355.202,1430.488,3354.948,1432.255,3354.948z M1303.945,3369.542h0.049
					H1303.945z"/>
			</g>
		</g>
		<g>
			<g>
				<path style="fill:#FFB83C;" d="M2606.515,3198.257c0,0,131.421,92.771,155.828,159.032s-144.563,16.289-144.563,16.289
					s-9.387,78.133-82.607,100.662s-129.543-65.71-129.543-65.71s-97.627,54.446-153.95,52.568s-48.813-127.666-48.813-127.666
					S2356.815,3132.547,2606.515,3198.257z"/>
			</g>
			<g style="opacity:0.4;">
				<path style="fill:#FFFFFF;" d="M2740.752,3337.657c0,0-60.078-26.284-91.056-49.283c-30.978-22.999-97.158-85.893-96.688-87.301
					s52.884,0,57.42,0s36.451,16.428,36.451,16.428L2740.752,3337.657z"/>
			</g>
			<g style="opacity:0.3;">
				<path style="fill:#010173;" d="M2756.252,3344.015c0,0-98.108-4.011-138.473-17.153s-15.372,43.234-29.1,84.485
					s-105.137-2.978-136.115-54.057s-97.627,13.531-132.36,0c-34.733-13.531,0-112.096,0-112.096s-68.527,15.02-97.627,50.691
					s-20.046,61.405-20.046,61.405s-14.687,102.871,49.146,103.81s153.95-52.568,153.95-52.568s74.767,79.251,133.837,64.267
					c59.07-14.984,77.375-83.98,81.599-87.5c4.224-3.521,4.224-3.521,4.224-3.521s83.882,19.499,117.625,7.989
					C2776.658,3378.257,2756.252,3344.015,2756.252,3344.015z"/>
			</g>
			<g>
				<path style="fill:#010173;" d="M2510.658,3496.642c-52.295,0.01-92.559-41.582-110.542-64.111
					c-30.43,15.547-101.523,48.95-149.058,47.192c-14.629-0.488-27.793-6.709-38.071-17.993
					c-33.247-36.494-29.282-120.005-28.721-129.404c0.22-3.716,1.548-7.275,3.809-10.224c1.66-2.168,41.46-53.526,113.359-96.855
					c66.675-40.181,174.556-80.591,309.819-45.01c2.153,0.566,4.185,1.514,6.006,2.798c5.557,3.926,136.455,96.929,162.568,167.817
					c8.477,23.018-0.21,37.085-6.143,43.418c-25.537,27.256-97.852,13.979-142.134,2.476c-8.55,28.271-31.582,77.056-90.903,95.303
					C2530.292,3495.236,2520.268,3496.642,2510.658,3496.642z M2405.615,3389.899c6.167,0,12.183,3.062,15.723,8.608
					c0.469,0.732,49.717,75.933,108.354,57.925c60.938-18.755,69.507-84.414,69.585-85.073c0.654-5.444,3.677-10.327,8.257-13.344
					c4.585-3.013,10.269-3.862,15.522-2.305c53.745,15.869,112.896,22.27,123.062,13.428c0-0.713-0.151-2.402-1.26-5.405
					c-17.9-48.594-109.136-121.611-146.348-148.296c-96.86-24.658-189.932-10.859-276.665,41.021
					c-54.668,32.7-89.81,71.245-100.64,83.999c-0.942,30.288,3.286,78.584,19.341,96.187c3.54,3.882,7.168,5.679,11.753,5.835
					c42.134,1.46,118.34-35.781,144.258-50.22C2399.423,3390.661,2402.538,3389.899,2405.615,3389.899z"/>
			</g>
		</g>
		<g>
			<g>
				<path style="fill:#FFFFFF;" d="M1762.286,638.835c0,0-339.817,79.322-458.096,413.506
					c-78.853,214.028-73.22,480.625-99.504,610.169c0,0-33.408,225.27-70.493,441.587c-8.607,50.206-19.098,100-31.225,149.475
					c-40.44,164.985-128.819,710.692,373.947,1004.763c132.174,70.655,286.511,104.017,441.567,107.404h161.128
					c155.057-3.387,309.393-36.749,441.567-107.404c502.766-294.071,414.387-839.778,373.947-1004.763
					c-12.127-49.474-22.617-99.269-31.225-149.475c-37.086-216.317-70.493-441.587-70.493-441.587
					c-26.284-129.544-20.652-396.14-99.504-610.169c-118.279-334.185-458.096-413.506-458.096-413.506s50.691-52.099,47.875-104.198
					s-174.602-1.408-174.602-1.408s-11.265-135.176-92.933-104.198s-84.485,193.376-84.485,193.376
					S1859.027,613.583,1762.286,638.835z"/>
			</g>
			<g>
				<path style="fill:#656477;" d="M1509.651,1981.043c0,0,345.954,143.596,395.07,232.247
					c49.116,88.651-33.349,190.947-177.345,212.73c-143.996,21.783-307.888,0-307.888,0S1355.366,2121.436,1509.651,1981.043z"/>
			</g>
			<g>
				<path style="fill:#656477;" d="M2141.626,2164.898c0,0,242.204-145.274,294.318-160.917
					c52.114-15.644,193.281,293.799,116.316,426.245c0,0-286.016,21.912-390.256-43.158
					C2057.764,2321.997,2050.585,2224.995,2141.626,2164.898z"/>
			</g>
			<g>
				<path style="fill:#0EC4EF;" d="M1092.173,2736.782c0,0,919.769,278.039,1813.752,0c0,0,37.863-116.678,16.029-334.105
					c-21.834-217.426-42.035-257.135-69.54-366.505c-27.505-109.371-24.931-153.104-24.931-153.104l-34.077-23.426
					c0,0-109-21.95-369.446,144.536l-38.238,19.116c0,0,167.835,168.251,149.672,409.424c0,0-345.237,38.699-430.578-92.532
					c-85.341-131.231,142.254-243.711,142.254-243.711l241.296-118.165l14.902-43.003l32.427-53.125c0,0-584.84,123.577-1071.988,0
					l32.317,56.189l-16.19,18.673c0,0-108.866-77.438-216.73-92.129c-107.864-14.69-101.026,30.165-101.026,30.165
					s-21.987,190.77-38.609,266.587c-16.622,75.817-39.065,196.283-47.406,231.638c-8.34,35.355,0,79.114,0,79.114
					s11.933,12.58,37.242,10.94c25.309-1.64,95.722-37.377,98.457-41.024s55.61-33.731,64.727-39.2
					c9.116-5.47,27.349-9.83,27.349-9.83l57.433,12.564l98.138,26.882c0,0-6.478-307.731,156.675-407.037
					c0,0,253.195,123.997,288.636,187.577c35.442,63.581,17.123,172.372-196.614,216.433
					c-213.736,44.062-314.084,3.133-314.084,3.133s-47.152,74.405-138.17,125.711s-164.726,75.21-164.726,75.21l-13.245,19.405
					L1092.173,2736.782z"/>
			</g>
			<g>
				<path style="fill:#EA3248;" d="M1487.078,1937.103c0,0-30.869-85.795-128.022-151.292
					c-97.153-65.497-149.227-61.798-149.227-61.798l-10.146,14.761l-17.516,97.919l13.702,16.947c0,0,87.229-2.051,160.389,34.87
					c73.159,36.921,102.329,57.23,102.748,57.456C1459.424,1946.194,1487.422,1953.719,1487.078,1937.103z"/>
			</g>
			<g>
				<path style="fill:#EA3248;" d="M1280.342,2413.584c0,0-45.088,34.967-97.068,51.996c-51.981,17.029-92.003,26.872-96.556,27.469
					c-4.553,0.597-14.361,9.453-14.361,9.453v110.081l10.13,20.664c0,0,88.479-17.245,189.672-75.363
					c101.192-58.117,115.963-116.513,115.963-116.513l-13.224-25.69l-71.288-16.421L1280.342,2413.584z"/>
			</g>
			<g>
				<path style="fill:#EA3248;" d="M2518.353,1937.103c0,0,30.869-85.795,128.022-151.292
					c97.153-65.497,149.227-61.798,149.227-61.798l10.146,14.761l17.516,97.919l-13.702,16.947c0,0-87.229-2.051-160.388,34.87
					c-73.159,36.921-102.329,57.23-102.748,57.456C2546.007,1946.194,2518.009,1953.719,2518.353,1937.103z"/>
			</g>
			<g>
				<path style="fill:#EA3248;" d="M2725.089,2413.584c0,0,45.088,34.967,97.068,51.996c51.981,17.029,92.003,26.872,96.556,27.469
					c4.553,0.597,14.361,9.453,14.361,9.453v110.081l-10.13,20.664c0,0-88.479-17.245-189.672-75.363
					c-101.192-58.117-115.963-116.513-115.963-116.513l13.224-25.69l71.288-16.421L2725.089,2413.584z"/>
			</g>
			<g>
				<path style="fill:#656477;" d="M1422.631,1836.694c0,0-91.796-376.282,0-621.015c91.796-244.733,442.494-282.195,593.512,0
					c0,0,109.083-224.677,335.17-208.267c226.087,16.409,296.83,469.184,260.547,797.074c0,0,70.18-48.39,114.11-62.366
					c43.93-13.975,61.278-18.344,61.278-18.344l11.001-29.011c0,0-30.828-237.445-45.397-370.663
					c-14.569-133.218-69.58-375.231-182.264-479.402c-112.684-104.172-260.207-180.536-260.207-180.536
					s-68.921-28.644-67.098-33.801c1.823-5.156,49.105-77.517,37.429-105.209c-11.675-27.691-75.228-21.378-113.893-9.231
					c-38.665,12.147-46.909,16.337-49.667,15.042c-2.758-1.295-8.504-1.744-8.504-1.744s-11.394-99.764-61.053-104.05
					c-49.659-4.286-100.597,48.703-105.724,107.162c-5.128,58.459-10.598,92.987-10.598,92.987s-177.432-30.745-409.727,133.282
					c-232.295,164.027-261.73,441.494-271.998,515.984c-10.268,74.49-44.863,387.924-44.863,387.924v45.953l16.164,18.233
					C1220.85,1726.696,1372.771,1772.57,1422.631,1836.694z"/>
			</g>
			<g style="opacity:0.4;">
				<path style="fill:#FFFFFF;" d="M2609.191,906.84c-169.44-243.129-370.545-264.459-370.545-264.459l21.137-65.032
					c0,0,41.808-25.537,11.331-52.195c-30.478-26.658-110.875-6.864-110.875-6.864l-58.433,13.351
					c0,0-15.292-114.653-84.217-107.224c-68.924,7.429-84.949,137.657-84.949,137.657l-16.734,46.109l-12.233,9.529
					c0,0-191.146,15.195-398.558,153.692c-230.223,153.73-259.624,552.695-259.624,552.695s95.332-346.563,297.763-489.543
					c22.282-15.738,44.479-29.554,66.403-41.88c10.643,16.755,56.55,15.042,105.544-4.527
					c49.877-19.922,84.463-59.859,78.641-79.074c94.606-25.524,176.669-29.203,188.026-40.34
					c20.103-19.713,8.223-154.501,40.532-161.542c32.307-7.04,19.12,51.379,31.324,70.388
					c12.206,19.009,122.054-18.305,139.286-11.265c17.231,7.041-56.002,63.363-36.617,97.158
					c19.384,33.794,267.082,66.884,427.905,270.586c160.824,203.702,181.541,478.97,181.541,478.97
					S2778.63,1149.969,2609.191,906.84z"/>
			</g>
			<g>
				<path style="fill:#FFB83C;" d="M2016.145,1395.914c-95.748,0-145.723,137.059-82.607,210.273
					c37.635,43.656,30.864,79.987,29.076,94.483c-1.194,9.669,2.133,19.589,9.202,26.291c20.861,19.774,44.329,24.963,44.329,24.963
					s23.468-5.189,44.329-24.963c7.069-6.702,10.396-16.622,9.202-26.291c-1.789-14.496-8.95-51.166,29.077-94.483
					C2172.631,1522.032,2111.895,1395.914,2016.145,1395.914z"/>
			</g>
			<g>
				<path style="fill:#010173;" d="M1948.558,1635.582l-25.345-61.664c0,0-1.408-8.692,0-12.853s7.858-9.373,9.365-8.432
					c1.508,0.941,39.935,32.81,92.729,29.453c52.794-3.357,77.436-22.836,77.436-22.836l14.889,11.734
					c0,0-26.815,46.609-33.884,64.597c-7.069,17.988-8.462,22.242-8.462,22.242h-8.462c0,0-22.515-33.332-56.309-31.924
					c-33.794,1.408-44.188,31.115-44.758,31.924C1965.185,1658.633,1948.558,1635.582,1948.558,1635.582z"/>
			</g>
			<g>
				<path style="fill:#EA3248;" d="M1968.975,1665.678c0,0,9.504-37.314,48.931-34.85c39.426,2.464,46.467,43.651,46.467,43.651
					s-11.265,16.897-47.699,20.065C1980.239,1697.712,1968.975,1665.678,1968.975,1665.678z"/>
			</g>
			<g>
				<ellipse style="fill:#010173;" cx="1713.034" cy="1387.465" rx="117.436" ry="171.786"/>
			</g>
			<g>
				<ellipse style="fill:#FFFFFF;" cx="1695.807" cy="1324.101" rx="49.987" ry="63.364"/>
			</g>
			<g>
				<path style="fill:#6E6F89;" d="M1757.991,1513.717c-12.373,12.372-27.863,16.942-34.599,10.205
					c-6.736-6.736-2.167-22.227,10.206-34.599c12.373-12.373,27.863-16.942,34.599-10.206
					C1774.932,1485.853,1770.363,1501.344,1757.991,1513.717z"/>
			</g>
			<g>
				<ellipse style="fill:#010173;" cx="2318.509" cy="1387.465" rx="117.436" ry="171.786"/>
			</g>
			<g>
				<ellipse style="fill:#FFFFFF;" cx="2335.736" cy="1324.101" rx="49.987" ry="63.364"/>
			</g>
			<g>
				<path style="fill:#6E6F89;" d="M2273.552,1513.717c12.372,12.372,27.863,16.942,34.599,10.205
					c6.736-6.736,2.167-22.227-10.205-34.599c-12.373-12.373-27.863-16.942-34.599-10.206
					C2256.611,1485.853,2261.18,1501.344,2273.552,1513.717z"/>
			</g>
			<g style="opacity:0.3;">
				<path style="fill:#010173;" d="M1916.745,1476.644c0,0,43.402,38.957,103.677,51.16c60.275,12.203,81.732-2.816,81.732-2.816
					l8.803,27.534c0,0-41.813,32.309-117.187,21.397c-75.374-10.913-94.63-44.216-94.63-47.512S1916.745,1476.644,1916.745,1476.644
					z"/>
			</g>
			<g style="opacity:0.4;">
				<path style="fill:#FFFFFF;" d="M1927.418,1460.554c0,0,62.527-36.479,107.247-27.092c44.72,9.387,91.473,77.914,91.473,77.914
					s-9.053-96.491-79.738-113.017C1975.715,1381.833,1927.418,1460.554,1927.418,1460.554z"/>
			</g>
			<g style="opacity:0.3;">
				<path style="fill:#010173;" d="M1185.252,1789.937c0,0,176.172,26.876,263.499,147.166c0,0-42.055-29.447-95.991-51.326
					c-53.936-21.879-151.709-32.819-153.76-34.187c-2.051-1.367-17.093-10.94-17.093-10.94L1185.252,1789.937z"/>
			</g>
			<g style="opacity:0.3;">
				<path style="fill:#010173;" d="M2741.45,2424.685c0,0,64.723,40.264,106.995,52.297c42.273,12.033,62.182,15.725,64.932,16.067
					c2.751,0.342,15.36-16.986,15.36-16.986s-17.452-153.37-36.908-248.058c-19.453-94.689-56.049-318.364-56.049-318.364h-15.876
					c0,0,22.3,249.172-172.152,381.359c-194.45,132.188-498.614,38.289-543.213-20.968c0,0-21.408,89.341,115.957,133.099
					c137.365,43.759,206.872,44.631,206.872,44.631l98.68-12.063c0,0-61.41,301.08-526,301.08
					c-464.588,0-525.999-301.08-525.999-301.08l98.678,12.063c0,0,69.508-0.873,206.873-44.631
					c137.364-43.759,115.957-133.099,115.957-133.099c-44.599,59.256-348.763,153.156-543.213,20.968
					c-194.452-132.188-172.152-381.359-172.152-381.359h-15.876c0,0-36.596,223.675-56.05,318.364s-36.907,248.058-36.907,248.058
					s12.609,17.328,15.36,16.986c2.751-0.342,22.659-4.034,64.931-16.067c42.274-12.033,106.997-52.297,106.997-52.297
					s28.583,62.319-33.855,91.491c-62.438,29.172-148.828,46.494-148.828,46.494l11.463,123.983
					c269.377,122.16,912.622,123.983,912.622,123.983s643.247-1.823,912.622-123.983l11.463-123.983
					c0,0-86.388-17.322-148.826-46.494C2712.867,2487.004,2741.45,2424.685,2741.45,2424.685z"/>
			</g>
			<g style="opacity:0.3;">
				<path style="fill:#010173;" d="M2892.295,2741.525l-211.54,49.055c0,0-192.928,330.014-680.708,330.014
					s-680.708-330.014-680.708-330.014l-211.54-49.055l-16.074,24.897l15.523,32.147l51.472,132.406
					c189.038,413.886,841.327,375.594,841.327,375.594s652.291,38.292,841.327-375.594l51.471-132.406l15.525-32.147
					L2892.295,2741.525z"/>
			</g>
			<g style="opacity:0.3;">
				<path style="fill:#010173;" d="M2808.365,1789.937c0,0-176.172,26.876-263.499,147.166c0,0,42.055-29.447,95.991-51.326
					c53.936-21.879,151.709-32.819,153.761-34.187c2.051-1.367,17.093-10.94,17.093-10.94L2808.365,1789.937z"/>
			</g>
			<g style="opacity:0.4;">
				<path style="fill:#FFFFFF;" d="M1215.409,1869.368c0,0,236.571,134.011,345.968,190.077
					c109.397,56.066,306.311,140.848,345.968,177.77c39.656,36.921-21.611-47.659-30.084-54.698
					c-8.473-7.04-164.532-112.072-309.264-179.108S1302.926,1855.693,1215.409,1869.368z"/>
			</g>
			<g style="opacity:0.4;">
				<path style="fill:#FFFFFF;" d="M2774.948,1869.368c0,0-236.571,134.011-345.968,190.077
					c-109.397,56.066-306.311,140.848-345.968,177.77c-39.656,36.921,21.611-47.659,30.084-54.698
					c8.473-7.04,164.532-112.072,309.264-179.108C2567.094,1936.373,2687.43,1855.693,2774.948,1869.368z"/>
			</g>
			<g style="opacity:0.4;">
				<path style="fill:#FFFFFF;" d="M1498.112,1929.992c0,0,381.217,151.332,1012.861,0c0,0,5.574-35.867,2.84-34.913
					c-2.735,0.954-13.907-2.464-13.907-2.464s-445.782,97.546-1012.825,0L1498.112,1929.992z"/>
			</g>
			<g>
				<path style="fill:#010173;" d="M2016.147,1766.256c-1.035,0-2.075-0.112-3.096-0.337c-1.113-0.247-27.622-6.304-51.099-28.557
					c-10.264-9.729-15.337-24.102-13.569-38.445c1.45-11.731-0.161-38.442-27.271-85.588c-3.061-5.325-6.992-11.187-11.157-17.393
					c-13.804-20.583-29.448-43.914-29.248-69.658c0.581-77.082,63.872-144.697,135.44-144.697
					c70.937,0,136.059,68.977,136.631,144.717c0.19,25.435-15.645,48.425-29.614,68.711c-4.517,6.555-8.779,12.749-11.982,18.32
					c-27.104,47.131-28.726,73.852-27.275,85.588c1.768,14.343-3.306,28.716-13.574,38.445
					c-23.472,22.253-49.975,28.31-51.089,28.557C2018.222,1766.144,2017.182,1766.256,2016.147,1766.256z M2016.147,1410.248
					c-60.606,0-106.357,61.375-106.777,116.248c-0.127,16.904,12.9,36.333,24.395,53.472c4.448,6.629,8.647,12.891,12.202,19.072
					c29.692,51.646,33.179,84.729,30.869,103.389c-0.65,5.269,1.206,10.684,4.839,14.128c13.354,12.656,28.145,18.428,34.478,20.469
					c6.289-2.029,21.094-7.798,34.458-20.469c3.638-3.445,5.493-8.86,4.839-14.133c-2.3-18.667,1.191-51.755,30.879-103.384
					c3.784-6.58,8.369-13.24,13.228-20.291c11.567-16.799,24.678-35.837,24.561-52.239
					C2123.696,1471.63,2077.436,1410.248,2016.147,1410.248z"/>
			</g>
			<g>
				<path style="fill:#010173;" d="M2023.696,1596.2c-73.506,0-132.388-44.133-133.271-44.81
					c-6.284-4.814-7.476-13.811-2.661-20.095c4.805-6.277,13.804-7.471,20.083-2.671c4.815,3.657,115.947,86.279,214.355,0.576
					c5.967-5.193,15.02-4.578,20.225,1.396c5.2,5.972,4.575,15.024-1.396,20.225C2101.933,1584.867,2060.932,1596.2,2023.696,1596.2
					z"/>
			</g>
			<g>
				<path style="fill:#010173;" d="M1959.662,1681.75c-2.305,0-4.644-0.557-6.816-1.733c-6.958-3.774-9.541-12.473-5.771-19.434
					c2.915-5.376,29.649-52.544,70.234-52.883c0.146-0.002,0.298-0.002,0.444-0.002c24.976,0,47.632,17.72,67.344,52.676
					c3.887,6.895,1.45,15.637-5.444,19.526c-6.904,3.889-15.64,1.45-19.526-5.444c-9.81-17.395-25.112-38.091-42.397-38.091
					c-0.059,0-0.117,0-0.181,0.003c-20.283,0.168-39.971,28.105-45.269,37.878C1969.682,1679.032,1964.755,1681.75,1959.662,1681.75
					z"/>
			</g>
			<g>
				<path style="fill:#010173;" d="M2019.877,1714.745c-27.236,0-51.904-10.688-65.43-19.883
					c-6.543-4.451-8.242-13.367-3.794-19.912c4.443-6.531,13.33-8.245,19.883-3.816c2.124,1.423,50.195,32.908,90.259,0.703
					c6.167-4.964,15.195-3.975,20.151,2.192c4.961,6.169,3.979,15.193-2.192,20.151
					C2059.882,1709.347,2039.233,1714.745,2019.877,1714.745z"/>
			</g>
			<g>
				<path style="fill:#010173;" d="M2535.414,2447.052c-0.547,0-1.094-0.029-1.646-0.093c-7.866-0.898-13.511-8.003-12.617-15.869
					c25.254-221.372-143.926-395.996-145.635-397.734c-5.552-5.635-5.488-14.712,0.142-20.264
					c5.635-5.562,14.707-5.503,20.264,0.127c7.383,7.481,180.552,185.869,153.716,421.123
					C2548.803,2441.652,2542.602,2447.052,2535.414,2447.052z"/>
			</g>
			<g>
				<path style="fill:#010173;" d="M1461.679,2447.052c-7.188,0-13.389-5.396-14.224-12.71
					c-26.841-235.254,146.328-413.642,153.711-421.123c5.562-5.63,14.624-5.688,20.264-0.127c5.63,5.552,5.693,14.629,0.142,20.264
					c-1.709,1.738-170.889,176.362-145.63,397.734c0.894,7.866-4.751,14.971-12.617,15.869
					C1462.773,2447.023,1462.221,2447.052,1461.679,2447.052z"/>
			</g>
			<g>
				<path style="fill:#010173;" d="M2031.786,2874.382c-138.618,0-264.932-8.101-372.515-19.073
					c-338.145-34.497-568.989-104.116-571.279-104.814c-7.573-2.31-11.841-10.317-9.531-17.891
					c2.31-7.578,10.332-11.841,17.891-9.531c2.271,0.693,230.991,69.619,566.538,103.789
					c309.321,31.494,775.322,39.058,1238.813-103.774c7.588-2.339,15.596,1.914,17.92,9.473c2.334,7.568-1.909,15.591-9.473,17.92
					C2603.227,2845.07,2295.356,2874.382,2031.786,2874.382z"/>
			</g>
			<g>
				<path style="fill:#010173;" d="M1991.957,1951.042c-317.456,0-528.755-54.172-531.899-55
					c-7.656-2.014-12.227-9.851-10.215-17.507c2.017-7.654,9.863-12.231,17.505-10.217c4.668,1.225,473.662,121.225,1065.469-0.178
					c7.773-1.609,15.337,3.408,16.924,11.16c1.592,7.756-3.408,15.332-11.162,16.921
					C2338.212,1937.326,2151.635,1951.042,1991.957,1951.042z"/>
			</g>
			<g>
				<path style="fill:#010173;" d="M2812.033,1661.978c2.281,30.821,5.435,66.278,9.254,97.379
					c2.893,34.026,13.367,64.568,10.198,99.781c-0.083,1.415-2.002,2.098-2.936,1.007c-12.48-13.508-20.077-29.263-25.311-45.522
					c-8.305-24.317-14.945-49.234-19.801-74.473c-4.802-25.508-8.298-50.726-8.657-77.108
					C2775.188,1638.793,2810.233,1637.792,2812.033,1661.978L2812.033,1661.978z"/>
			</g>
			<g>
				<path style="fill:#010173;" d="M1918.481,3384.372c-167.461-3.652-323.047-41.552-450.352-109.599
					c-0.21-0.112-0.42-0.23-0.625-0.352c-514.468-300.918-422.939-860.845-382.637-1025.288
					c12.261-50.029,22.681-99.883,30.962-148.184c36.621-213.623,70.093-438.921,70.425-441.172
					c0.049-0.325,0.107-0.649,0.171-0.972c8.506-41.921,13.628-98.967,19.556-165.022c12.095-134.761,27.148-302.473,80.723-447.886
					c62.827-177.517,187.549-283.704,281.099-341.482c99.429-61.414,183.721-82.178,189.99-83.667
					c69.98-18.237,127.539-19.299,156.309-18.208c3.765-46.807,20.605-162.549,95.439-190.933
					c29.834-11.318,51.563-3.938,64.541,4.238c32.095,20.237,45.273,65.94,50.464,93.752c44.99-11.758,128.11-28.838,161.318-5.383
					c10.088,7.126,15.767,17.297,16.426,29.417c2.002,37.039-18.14,72.798-34.209,95.122
					c33.809,10.869,94.497,33.838,162.212,75.662c93.55,57.778,218.267,163.965,281.177,341.706
					c53.491,145.188,68.545,312.903,80.645,447.664c5.928,66.052,11.05,123.098,19.556,165.02c0.063,0.322,0.122,0.647,0.171,0.972
					c0.332,2.251,33.804,227.549,70.425,441.172c8.296,48.364,18.711,98.222,30.957,148.184
					c40.308,164.443,131.836,724.37-382.637,1025.288c-0.205,0.122-0.415,0.239-0.625,0.352
					c-127.3,68.047-282.886,105.947-449.946,109.595L1918.481,3384.372z M1486.01,3242.067
					c122.109,65.2,271.787,101.523,432.876,105.044l160.723-0.005c160.688-3.516,310.366-39.839,432.471-105.034
					c491.899-287.935,403.696-825.986,364.946-984.067c-12.456-50.806-23.052-101.528-31.489-150.757
					c-35.874-209.243-68.721-429.614-70.488-441.516c-8.857-43.884-14.048-101.704-20.054-168.613
					c-11.899-132.571-26.714-297.559-78.579-438.335c-59.185-167.224-176.543-267.366-264.59-321.968
					c-96.143-59.627-179.438-79.644-180.273-79.839c-6.533-1.536-11.743-6.472-13.628-12.917c-1.88-6.445-0.156-13.408,4.526-18.22
					c0.43-0.444,44.961-47.019,42.622-90.195c-0.02-0.352-0.063-0.498-0.063-0.498c-0.029-0.005-11.489-11.467-76.299-0.889
					c-38.125,6.223-74.004,16.741-74.365,16.846c-5.381,1.589-11.177,0.664-15.796-2.5c-4.624-3.167-7.578-8.242-8.042-13.826
					c-1.514-17.69-11.445-71.77-36.333-87.424c-5.464-3.433-14.648-7.256-31.421-0.901
					c-57.163,21.685-71.689,134.607-72.461,176.289c-0.098,5.273-2.427,10.261-6.406,13.723c-3.979,3.46-9.253,5.076-14.473,4.441
					c-0.669-0.081-70.674-7.988-162.422,15.959c-0.151,0.039-0.303,0.078-0.454,0.112l0,0c-0.83,0.195-84.126,20.212-180.273,79.839
					c-88.042,54.602-205.4,154.744-264.507,321.743c-51.948,141.001-66.758,305.986-78.657,438.555
					c-6.006,66.912-11.196,124.731-20.054,168.618c-1.768,11.902-34.614,232.273-70.488,441.516
					c-8.428,49.16-19.023,99.883-31.489,150.757C1082.319,2416.086,994.111,2954.137,1486.01,3242.067z M1762.285,638.835h0.049
					H1762.285z"/>
			</g>
			<g>
				<path style="fill:#010173;" d="M1076.044,2512.936c-9.517,0-17.637-7.251-18.535-16.914
					c-0.952-10.244,6.582-19.326,16.831-20.278c111.021-10.317,222.378-96.27,223.486-97.134c5.542-4.326,13.066-5.171,19.429-2.153
					c0.976,0.459,101.841,46.958,262.637,45.42c145.015-1.343,254.199-35.518,299.556-93.76
					c20.166-25.894,26.587-54.692,19.087-85.591c-15.298-62.988-209.937-159.985-338.735-224.17
					c-64.497-32.139-120.195-59.895-153.984-81.858c-102.568-66.667-228.848-58.369-230.122-58.271
					c-10.298,0.75-19.185-6.96-19.941-17.217c-0.757-10.256,6.934-19.184,17.188-19.949c5.644-0.425,139.824-9.495,253.188,64.192
					c32.002,20.801,86.821,48.118,150.293,79.749c192.046,95.703,340.371,174.785,358.325,248.726
					c10.181,41.909,1.226,82.466-25.893,117.29c-53.154,68.257-169.858,106.655-328.618,108.125
					c-141.641,1.255-237.646-32.061-268.428-44.492c-30.029,21.689-130.025,88.54-234.019,98.203
					C1077.202,2512.907,1076.62,2512.931,1076.044,2512.936z"/>
			</g>
			<g>
				<path style="fill:#010173;" d="M1076.049,2656.056c-8.501,0-16.177-5.85-18.149-14.487
					c-2.295-10.029,3.979-20.024,14.014-22.314c223.686-51.138,311.709-204.697,312.568-206.24
					c5.015-8.975,16.353-12.217,25.332-7.217c8.984,4.99,12.236,16.299,7.261,25.288c-3.813,6.894-96.167,169.478-336.86,224.497
					C1078.818,2655.905,1077.421,2656.056,1076.049,2656.056z"/>
			</g>
			<g>
				<path style="fill:#010173;" d="M1301.921,2410.419c-18.213-6.789-35.538-15.676-52.593-24.961
					c-17.639-11.07-36.242-16.698-47.525-36.738c-0.612-1.099,0.01-2.541,1.229-2.85c11.93-3.192,21.826-1.659,31.233,1.013
					c28.133,7.774,56.076,16.607,82.393,29.304C1337.413,2387.018,1323.942,2417.996,1301.921,2410.419L1301.921,2410.419z"/>
			</g>
			<g>
				<path style="fill:#010173;" d="M1509.643,1991.017c-8.169,0-15.659-5.41-17.944-13.657l0,0
					c-2.143-7.642-55.254-187.764-299.595-238.162c-10.078-2.078-16.563-11.934-14.487-22.014
					c2.085-10.08,11.963-16.563,22.017-14.485c267.529,55.181,325.645,256.214,327.988,264.746
					c2.724,9.922-3.11,20.178-13.032,22.903C1512.939,1990.802,1511.274,1991.017,1509.643,1991.017z"/>
			</g>
			<g>
				<path style="fill:#010173;" d="M2921.972,2512.467c-0.576,0-1.157-0.029-1.743-0.083
					c-103.989-9.663-203.989-76.509-234.019-98.198c-30.786,12.427-126.724,45.776-268.428,44.492
					c-158.76-1.475-275.464-39.873-328.618-108.13c-27.119-34.824-36.074-75.381-25.894-117.29
					c17.954-73.94,166.284-153.022,358.335-248.726c63.472-31.628,118.286-58.945,150.288-79.746
					c113.364-73.689,247.524-64.624,253.184-64.194c10.264,0.767,17.964,9.707,17.197,19.968
					c-0.767,10.259-9.717,17.935-19.961,17.197c-1.87-0.132-127.798-8.232-230.107,58.274
					c-33.789,21.963-89.487,49.719-153.979,81.856c-128.804,64.185-323.447,161.182-338.745,224.17
					c-7.5,30.898-1.079,59.697,19.087,85.591c45.356,58.242,154.541,92.417,299.556,93.765
					c160.703,1.602,261.66-44.956,262.656-45.43c6.362-2.983,13.867-2.153,19.399,2.153c1.113,0.869,112.739,86.851,223.496,97.139
					c10.249,0.952,17.783,10.029,16.831,20.278C2939.609,2505.212,2931.489,2512.463,2921.972,2512.467z"/>
			</g>
			<g>
				<path style="fill:#010173;" d="M2921.967,2655.588c-1.372,0-2.769-0.151-4.165-0.474
					c-240.693-55.015-333.047-217.598-336.86-224.492c-4.985-9.004-1.724-20.342,7.285-25.322
					c8.979-4.985,20.317-1.733,25.308,7.256c1.011,1.802,89.072,155.142,312.568,206.23c10.034,2.29,16.309,12.285,14.014,22.314
					C2938.144,2649.738,2930.468,2655.588,2921.967,2655.588z"/>
			</g>
			<g>
				<path style="fill:#010173;" d="M2681.361,2375.721c26.317-12.698,54.259-21.531,82.393-29.304
					c9.407-2.672,19.303-4.205,31.233-1.013c1.219,0.309,1.841,1.752,1.227,2.849c-11.271,20.033-29.891,25.675-47.523,36.738
					c-17.056,9.287-34.379,18.171-52.593,24.961C2673.964,2417.585,2660.721,2386.511,2681.361,2375.721L2681.361,2375.721z"/>
			</g>
			<g>
				<path style="fill:#010173;" d="M2488.373,1990.526c-1.646,0-3.315-0.22-4.98-0.681c-9.897-2.747-15.713-12.961-12.993-22.866
					c2.344-8.533,60.459-209.566,327.983-264.746c10.059-2.075,19.932,4.404,22.017,14.485c2.075,10.081-4.409,19.937-14.487,22.014
					c-244.336,50.398-297.446,230.52-299.59,238.162C2504.018,1985.124,2496.528,1990.526,2488.373,1990.526z"/>
			</g>
		</g>
		<g>
			<ellipse style="fill:#FF5572;" cx="2316.397" cy="1649.974" rx="69.326" ry="44.791"/>
		</g>
		<g>
			<ellipse style="fill:#FF5572;" cx="1695.807" cy="1649.974" rx="69.326" ry="44.791"/>
		</g>
		<g>
			<g>
				<path style="fill:#5086FF;" d="M2326.481,2761.408h-589.614l-111.22-82.048v-784.281c0,0,408.415-22.15,718.372,0
					c41.704,14.563,25.526,802.514,25.526,802.514S2356.347,2761.408,2326.481,2761.408z"/>
			</g>
			<g>
				<path style="fill:#FFFFFF;" d="M1736.867,2761.408l-25.526-824.304l643.705-15.111l-19.31-26.914c0,0-582.554-34.913-710.089,0
					v784.281L1736.867,2761.408z"/>
			</g>
			<g>
				<polygon style="fill:#FFFFFF;" points="1831.677,2066.782 2254.679,2048.505 2254.679,2323.321 1847.509,2323.321 				"/>
			</g>
			<g style="opacity:0.3;">
				<path style="fill:#010173;" d="M1662.621,2715.826l12.255-116.69h45.582c0,0,257.083,18.233,375.596-36.466
					c118.513-54.698,82.048-242.185,82.048-242.185H1855.38c0,0,184.785-54.103,255.576-130.222
					c70.791-76.119,72.437-149.051,72.437-149.051v-60.168l133.004-8.664c0,0,24.007,731.029,2.112,769.145
					c-21.895,38.116-572.715,19.883-572.715,19.883l-32.76-17.582L1662.621,2715.826z"/>
			</g>
			<g style="opacity:0.4;">
				<path style="fill:#FFFFFF;" d="M1745.794,2577.256l34.832-553.963l495.932-86.19l-565.217,18.453
					C1711.341,1955.556,1725.548,2571.786,1745.794,2577.256z"/>
			</g>
			<g>
				<path style="fill:#010173;" d="M2254.677,2337.658h-407.168c-7.573,0-13.838-5.894-14.307-13.452l-15.83-256.538
					c-0.239-3.843,1.079-7.617,3.652-10.473c2.578-2.861,6.191-4.565,10.034-4.731l422.998-18.281
					c3.945-0.195,7.71,1.265,10.532,3.97c2.827,2.705,4.424,6.441,4.424,10.352v274.819
					C2269.013,2331.237,2262.592,2337.658,2254.677,2337.658z M1860.986,2308.986h379.355v-245.518l-393.457,17.007
					L1860.986,2308.986z"/>
			</g>
			<g>
				<path style="fill:#010173;" d="M1736.855,2778.61c-9.248,0-16.89-7.349-17.183-16.655L1694.15,1956.1
					c-0.298-9.358,6.948-17.234,16.299-17.722l643.706-33.564c9.375-0.459,17.578,6.795,18.071,16.282
					c0.493,9.487-6.797,17.578-16.284,18.074l-626.875,32.686l24.99,789.006c0.303,9.497-7.153,17.437-16.646,17.739
					C1737.226,2778.605,1737.04,2778.61,1736.855,2778.61z"/>
			</g>
			<g>
				<path style="fill:#010173;" d="M2326.479,2780.041h-589.614c-3.979,0-7.857-1.274-11.065-3.638l-111.216-82.046
					c-4.761-3.511-7.568-9.077-7.568-14.995V1895.08c0-9.9,7.739-18.071,17.622-18.606c4.102-0.225,413.145-21.956,720.708,0.02
					c1.641,0.117,3.262,0.452,4.814,0.994c15.757,5.503,26.641,18.782,34.043,148.066c3.867,67.481,6.172,160.391,6.851,276.138
					c1.157,196.777-2.837,394.312-2.881,396.284c-0.02,1.143-0.151,2.275-0.381,3.394
					C2385.077,2714.504,2369.35,2780.041,2326.479,2780.041z M1742.993,2742.775h583.486c6.284,0,18.857-22.109,24.473-47.354
					c7.012-343.647,3.311-725.64-16.948-782.363c-267.715-18.296-609.009-4.07-689.722-0.247v757.141L1742.993,2742.775z"/>
			</g>
		</g>
		<g>
			<g>
				<path style="fill:#656477;" d="M2141.626,2164.898c0,0,242.204-145.274,294.318-160.917
					c52.114-15.644,193.281,293.799,116.316,426.245c0,0-286.016,21.912-390.256-43.158
					C2057.764,2321.997,2050.585,2224.995,2141.626,2164.898z"/>
			</g>
			<g>
				<path style="fill:none;" d="M2269.005,2421.602c12.399,2.29,24.763,4.185,37.075,5.811
					c-24.776-6.094-53.279-13.989-85.583-24.28c-137.368-43.759-115.958-133.099-115.958-133.099
					c36.537,48.544,247.248,120.248,429.156,71.944c-19.222-173.067-124.38-293.429-144.544-315.081l-133.701,65.474
					c-29.672,17.691-56.825,34.524-79.87,49.642c-53.845,41.437-113.219,107.153-80.574,180.235
					C2116.247,2363.444,2166.446,2402.657,2269.005,2421.602z"/>
			</g>
			<g>
				<path style="fill:none;" d="M2521.9,1946.245c-8.952,4.515-18.036,9.14-27.229,13.869l-0.531,1.538
					C2503.668,1956.208,2512.869,1951.135,2521.9,1946.245z"/>
			</g>
			<g>
				<path style="fill:none;" d="M2269.005,2421.602c-102.559-18.944-152.758-58.157-173.998-99.354
					c2.65,5.934,5.892,11.915,9.811,17.937c40.394,62.115,139.01,86.149,231.686,94.246c-9.407-2.015-19.564-4.347-30.424-7.018
					C2293.768,2425.786,2281.404,2423.892,2269.005,2421.602z"/>
			</g>
			<g>
				<path style="fill:#0EC4EF;" d="M2913.378,2493.049c-2.753-0.342-22.658-4.034-64.932-16.067
					c-1.235-0.352-2.549-0.804-3.822-1.202c25.984,10.738,54.255,19.973,83.668,25.779c-0.207-7.747-0.476-15.644-0.842-23.758
					C2924.176,2482.176,2915.589,2493.324,2913.378,2493.049z"/>
			</g>
			<g>
				<path style="fill:#0EC4EF;" d="M2521.9,1946.245c36.547-18.43,70.773-34.916,100.324-48.174
					C2592.911,1910.141,2559.517,1925.885,2521.9,1946.245z"/>
			</g>
			<g>
				<path style="fill:#0EC4EF;" d="M2494.14,1961.651c-22.054,12.6-45.424,26.703-70.179,42.526l-38.238,19.116
					c0,0,1.27,1.287,3.429,3.602l99.217-48.588L2494.14,1961.651z"/>
			</g>
			<g>
				<path style="fill:#0EC4EF;" d="M2926.156,2454.321c-1.042-16.547-2.401-33.719-4.202-51.644
					c-18.163-180.858-35.198-238.769-56.242-316.074c9.232,52.88,18.867,106.104,26.118,141.403
					C2906.82,2300.961,2920.612,2408.684,2926.156,2454.321z"/>
			</g>
			<g>
				<path style="fill:#0EC4EF;" d="M2488.368,1978.308l-99.217,48.588c20.164,21.652,125.321,142.015,144.544,315.081
					c40.142-10.66,78.904-27.079,114.058-50.976c194.452-132.188,172.152-381.359,172.152-381.359h8.804
					c-1.704-18.294-1.225-26.574-1.225-26.574l-34.077-23.426c0,0-52.392-10.486-171.183,38.43
					c-29.551,13.258-63.777,29.743-100.324,48.174c-9.032,4.891-18.232,9.963-27.761,15.406L2488.368,1978.308z"/>
			</g>
			<g>
				<path style="fill:#0EC4EF;" d="M2389.152,2026.896c-2.16-2.315-3.429-3.602-3.429-3.602l38.238-19.116
					c24.756-15.824,48.125-29.926,70.179-42.526l0.531-1.538c-79.597,40.935-166.905,89.141-239.22,132.257L2389.152,2026.896z"/>
			</g>
			<g style="opacity:0.3;">
				<path style="fill:#010173;" d="M2928.737,2476.063c0,0-0.928-8.148-2.581-21.742c0.504,7.973,0.949,15.83,1.294,23.48
					C2928.247,2476.738,2928.737,2476.063,2928.737,2476.063z"/>
			</g>
			<g style="opacity:0.3;">
				<path style="fill:#010173;" d="M2306.08,2427.412c10.86,2.671,21.016,5.003,30.424,7.018
					c103.122,9.01,198.892-1.714,198.892-1.714c0.145-1.924,0.176-3.802,0.297-5.716
					C2469.36,2435.014,2389.124,2438.382,2306.08,2427.412z"/>
			</g>
			<g style="opacity:0.3;">
				<path style="fill:#010173;" d="M2865.712,2086.603c-15.534-88.968-29.93-176.961-29.93-176.961h-7.072
					c2.218,23.827,8.145,64.662,23.704,126.53C2857.039,2054.566,2861.455,2070.972,2865.712,2086.603z"/>
			</g>
			<g style="opacity:0.3;">
				<path style="fill:#010173;" d="M2533.695,2341.977c-181.909,48.304-392.62-23.4-429.156-71.944
					c0,0-21.41,89.341,115.958,133.099c32.304,10.291,60.806,18.186,85.583,24.28c83.044,10.969,163.28,7.602,229.613-0.411
					C2537.566,2397.487,2536.704,2369.085,2533.695,2341.977z"/>
			</g>
			<g>
				<path style="fill:#0EC4EF;" d="M2647.753,2291.001c-35.154,23.897-73.916,40.316-114.058,50.976
					c3.008,27.108,3.871,55.51,1.997,85.024c98.985-11.958,166.995-34.165,166.995-34.165s59.478,48.867,141.936,82.943
					c1.273,0.398,2.587,0.85,3.822,1.202c42.274,12.033,62.179,15.725,64.932,16.067c2.211,0.275,10.798-10.874,14.072-15.248
					c-0.345-7.65-0.79-15.507-1.294-23.48c-5.544-45.637-19.336-153.36-34.326-226.316c-7.251-35.299-16.887-88.523-26.118-141.403
					c-4.257-15.631-8.673-32.036-13.299-50.431c-15.559-61.868-21.485-102.703-23.704-126.53h-8.804
					C2819.905,1909.641,2842.205,2158.813,2647.753,2291.001z"/>
			</g>
			<g style="opacity:0.3;">
				<path style="fill:#010173;" d="M2647.753,2291.001c-35.154,23.897-73.916,40.316-114.058,50.976
					c3.008,27.108,3.871,55.51,1.997,85.024c98.985-11.958,166.995-34.165,166.995-34.165s59.478,48.867,141.936,82.943
					c1.273,0.398,2.587,0.85,3.822,1.202c42.274,12.033,62.179,15.725,64.932,16.067c2.211,0.275,10.798-10.874,14.072-15.248
					c-0.345-7.65-0.79-15.507-1.294-23.48c-5.544-45.637-19.336-153.36-34.326-226.316c-7.251-35.299-16.887-88.523-26.118-141.403
					c-4.257-15.631-8.673-32.036-13.299-50.431c-15.559-61.868-21.485-102.703-23.704-126.53h-8.804
					C2819.905,1909.641,2842.205,2158.813,2647.753,2291.001z"/>
			</g>
			<g style="opacity:0.4;">
				<path style="fill:#FFFFFF;" d="M2774.948,1869.368c0,0-236.571,134.011-345.968,190.077
					c-109.397,56.066-306.311,140.848-345.968,177.77c-39.656,36.921,21.611-47.659,30.084-54.698
					c8.473-7.04,164.532-112.072,309.264-179.108C2567.094,1936.373,2687.43,1855.693,2774.948,1869.368z"/>
			</g>
			<g>
				<path style="fill:#010173;" d="M2535.414,2447.052c-0.547,0-1.094-0.029-1.646-0.093c-7.866-0.898-13.511-8.003-12.617-15.869
					c25.254-221.372-143.926-395.996-145.635-397.734c-5.552-5.635-5.488-14.712,0.142-20.264
					c5.635-5.562,14.707-5.503,20.264,0.127c7.383,7.481,180.552,185.869,153.716,421.123
					C2548.803,2441.652,2542.602,2447.052,2535.414,2447.052z"/>
			</g>
			<g>
				<path style="fill:#010173;" d="M2927.831,2534.894c-10.21,0-18.535-8.228-18.628-18.462
					c-1.011-109.18-18.057-200.796-32.178-258.428c-12.456-50.806-23.052-101.528-31.489-150.757
					c-13.579-79.194-26.367-157.097-40.254-245.171c-1.602-10.166,5.342-19.707,15.508-21.309
					c10.151-1.614,19.707,5.337,21.309,15.503c13.857,87.908,26.621,165.654,40.166,244.678
					c8.296,48.364,18.711,98.222,30.957,148.184c14.595,59.551,32.207,154.199,33.247,266.958
					c0.098,10.288-8.169,18.711-18.462,18.804C2927.948,2534.894,2927.89,2534.894,2927.831,2534.894z"/>
			</g>
			<g>
				<path style="fill:#010173;" d="M2921.972,2512.467c-0.576,0-1.157-0.029-1.743-0.083
					c-103.989-9.663-203.989-76.509-234.019-98.198c-30.786,12.427-126.724,45.776-268.428,44.492
					c-158.76-1.475-275.464-39.873-328.618-108.13c-27.119-34.824-36.074-75.381-25.894-117.29
					c17.954-73.94,166.284-153.022,358.335-248.726c63.472-31.628,118.286-58.945,150.288-79.746
					c113.364-73.689,247.524-64.624,253.184-64.194c10.264,0.767,17.964,9.707,17.197,19.968
					c-0.767,10.259-9.717,17.935-19.961,17.197c-1.87-0.132-127.798-8.232-230.107,58.274
					c-33.789,21.963-89.487,49.719-153.979,81.856c-128.804,64.185-323.447,161.182-338.745,224.17
					c-7.5,30.898-1.079,59.697,19.087,85.591c45.356,58.242,154.541,92.417,299.556,93.765
					c160.703,1.602,261.66-44.956,262.656-45.43c6.362-2.983,13.867-2.153,19.399,2.153c1.113,0.869,112.739,86.851,223.496,97.139
					c10.249,0.952,17.783,10.029,16.831,20.278C2939.609,2505.212,2931.489,2512.463,2921.972,2512.467z"/>
			</g>
			<g>
				<path style="fill:#010173;" d="M2681.361,2375.721c26.317-12.698,54.259-21.531,82.393-29.304
					c9.407-2.672,19.303-4.205,31.233-1.013c1.219,0.309,1.841,1.752,1.227,2.849c-11.271,20.033-29.891,25.675-47.523,36.738
					c-17.056,9.287-34.379,18.171-52.593,24.961C2673.964,2417.585,2660.721,2386.511,2681.361,2375.721L2681.361,2375.721z"/>
			</g>
		</g>
		<g>
			<g>
				<path style="fill:#656477;" d="M1856.391,2164.898c0,0-242.204-145.274-294.318-160.917
					c-52.114-15.644-193.281,293.799-116.316,426.245c0,0,286.016,21.912,390.256-43.158
					C1940.253,2321.997,1947.432,2224.995,1856.391,2164.898z"/>
			</g>
			<g>
				<path style="fill:none;" d="M1729.013,2421.602c-12.399,2.29-24.763,4.185-37.075,5.811
					c24.777-6.094,53.279-13.989,85.583-24.28c137.368-43.759,115.958-133.099,115.958-133.099
					c-36.537,48.544-247.248,120.248-429.156,71.944c19.222-173.067,124.38-293.429,144.544-315.081l133.701,65.474
					c29.672,17.691,56.825,34.524,79.87,49.642c53.845,41.437,113.219,107.153,80.574,180.235
					C1881.77,2363.444,1831.572,2402.657,1729.013,2421.602z"/>
			</g>
			<g>
				<path style="fill:none;" d="M1476.117,1946.245c8.952,4.515,18.036,9.14,27.229,13.869l0.531,1.538
					C1494.35,1956.208,1485.149,1951.135,1476.117,1946.245z"/>
			</g>
			<g>
				<path style="fill:none;" d="M1729.013,2421.602c102.559-18.944,152.758-58.157,173.998-99.354
					c-2.649,5.934-5.892,11.915-9.811,17.937c-40.394,62.115-139.01,86.149-231.686,94.246c9.408-2.015,19.564-4.347,30.424-7.018
					C1704.25,2425.786,1716.614,2423.892,1729.013,2421.602z"/>
			</g>
			<g>
				<path style="fill:#0EC4EF;" d="M1084.64,2493.049c2.753-0.342,22.658-4.034,64.932-16.067c1.235-0.352,2.549-0.804,3.822-1.202
					c-25.984,10.738-54.255,19.973-83.668,25.779c0.207-7.747,0.476-15.644,0.842-23.758
					C1073.842,2482.176,1082.428,2493.324,1084.64,2493.049z"/>
			</g>
			<g>
				<path style="fill:#0EC4EF;" d="M1476.117,1946.245c-36.547-18.43-70.773-34.916-100.324-48.174
					C1405.106,1910.141,1438.501,1925.885,1476.117,1946.245z"/>
			</g>
			<g>
				<path style="fill:#0EC4EF;" d="M1503.878,1961.651c22.055,12.6,45.424,26.703,70.179,42.526l38.238,19.116
					c0,0-1.269,1.287-3.429,3.602l-99.217-48.588L1503.878,1961.651z"/>
			</g>
			<g>
				<path style="fill:#0EC4EF;" d="M1071.862,2454.321c1.042-16.547,2.401-33.719,4.202-51.644
					c18.163-180.858,35.198-238.769,56.242-316.074c-9.232,52.88-18.867,106.104-26.119,141.403
					C1091.198,2300.961,1077.406,2408.684,1071.862,2454.321z"/>
			</g>
			<g>
				<path style="fill:#0EC4EF;" d="M1509.65,1978.308l99.217,48.588c-20.164,21.652-125.321,142.015-144.544,315.081
					c-40.142-10.66-78.904-27.079-114.058-50.976c-194.452-132.188-172.152-381.359-172.152-381.359h-8.804
					c1.704-18.294,1.225-26.574,1.225-26.574l34.077-23.426c0,0,52.392-10.486,171.183,38.43
					c29.551,13.258,63.777,29.743,100.324,48.174c9.032,4.891,18.232,9.963,27.761,15.406L1509.65,1978.308z"/>
			</g>
			<g>
				<path style="fill:#0EC4EF;" d="M1608.866,2026.896c2.16-2.315,3.429-3.602,3.429-3.602l-38.238-19.116
					c-24.756-15.824-48.125-29.926-70.179-42.526l-0.531-1.538c79.598,40.935,166.905,89.141,239.22,132.257L1608.866,2026.896z"/>
			</g>
			<g style="opacity:0.3;">
				<path style="fill:#010173;" d="M1069.281,2476.063c0,0,0.928-8.148,2.58-21.742c-0.504,7.973-0.949,15.83-1.294,23.48
					C1069.771,2476.738,1069.281,2476.063,1069.281,2476.063z"/>
			</g>
			<g style="opacity:0.3;">
				<path style="fill:#010173;" d="M1691.938,2427.412c-10.86,2.671-21.016,5.003-30.424,7.018
					c-103.122,9.01-198.892-1.714-198.892-1.714c-0.145-1.924-0.176-3.802-0.297-5.716
					C1528.658,2435.014,1608.894,2438.382,1691.938,2427.412z"/>
			</g>
			<g style="opacity:0.3;">
				<path style="fill:#010173;" d="M1132.306,2086.603c15.535-88.968,29.931-176.961,29.931-176.961h7.072
					c-2.218,23.827-8.145,64.662-23.703,126.53C1140.979,2054.566,1136.563,2070.972,1132.306,2086.603z"/>
			</g>
			<g style="opacity:0.3;">
				<path style="fill:#010173;" d="M1464.323,2341.977c181.908,48.304,392.62-23.4,429.156-71.944c0,0,21.41,89.341-115.958,133.099
					c-32.304,10.291-60.806,18.186-85.583,24.28c-83.044,10.969-163.28,7.602-229.613-0.411
					C1460.452,2397.487,1461.314,2369.085,1464.323,2341.977z"/>
			</g>
			<g>
				<path style="fill:#0EC4EF;" d="M1350.265,2291.001c35.154,23.897,73.916,40.316,114.058,50.976
					c-3.008,27.108-3.871,55.51-1.998,85.024c-98.985-11.958-166.995-34.165-166.995-34.165s-59.478,48.867-141.935,82.943
					c-1.273,0.398-2.587,0.85-3.822,1.202c-42.274,12.033-62.179,15.725-64.932,16.067c-2.211,0.275-10.798-10.874-14.072-15.248
					c0.345-7.65,0.79-15.507,1.294-23.48c5.544-45.637,19.336-153.36,34.326-226.316c7.252-35.299,16.887-88.523,26.119-141.403
					c4.257-15.631,8.673-32.036,13.299-50.431c15.559-61.868,21.485-102.703,23.703-126.53h8.804
					C1178.112,1909.641,1155.813,2158.813,1350.265,2291.001z"/>
			</g>
			<g style="opacity:0.3;">
				<path style="fill:#010173;" d="M1350.265,2291.001c35.154,23.897,73.916,40.316,114.058,50.976
					c-3.008,27.108-3.871,55.51-1.998,85.024c-98.985-11.958-166.995-34.165-166.995-34.165s-59.478,48.867-141.935,82.943
					c-1.273,0.398-2.587,0.85-3.822,1.202c-42.274,12.033-62.179,15.725-64.932,16.067c-2.211,0.275-10.798-10.874-14.072-15.248
					c0.345-7.65,0.79-15.507,1.294-23.48c5.544-45.637,19.336-153.36,34.326-226.316c7.252-35.299,16.887-88.523,26.119-141.403
					c4.257-15.631,8.673-32.036,13.299-50.431c15.559-61.868,21.485-102.703,23.703-126.53h8.804
					C1178.112,1909.641,1155.813,2158.813,1350.265,2291.001z"/>
			</g>
			<g style="opacity:0.4;">
				<path style="fill:#FFFFFF;" d="M1223.07,1869.368c0,0,236.571,134.011,345.968,190.077s306.311,140.848,345.968,177.77
					s-21.611-47.659-30.084-54.698c-8.473-7.04-164.532-112.072-309.264-179.108S1310.587,1855.693,1223.07,1869.368z"/>
			</g>
			<g>
				<path style="fill:#010173;" d="M1462.602,2447.052c-7.188,0-13.389-5.396-14.224-12.71
					c-26.836-235.254,146.333-413.642,153.716-421.123c5.567-5.63,14.629-5.688,20.264-0.127c5.63,5.552,5.693,14.629,0.142,20.264
					c-1.709,1.738-170.889,176.362-145.635,397.734c0.893,7.866-4.751,14.971-12.617,15.869
					C1463.696,2447.023,1463.144,2447.052,1462.602,2447.052z"/>
			</g>
			<g>
				<path style="fill:#010173;" d="M1070.185,2534.894c-0.059,0-0.117,0-0.176,0c-10.293-0.093-18.56-8.516-18.462-18.804
					c1.04-112.783,18.657-207.422,33.247-266.958c12.261-50.029,22.681-99.883,30.962-148.184
					c13.506-78.779,26.265-156.528,40.161-244.678c1.606-10.166,11.167-17.117,21.309-15.503
					c10.166,1.602,17.109,11.143,15.508,21.309c-13.926,88.316-26.714,166.221-40.249,245.171
					c-8.428,49.16-19.024,99.883-31.489,150.757c-14.126,57.622-31.172,149.224-32.183,258.428
					C1088.72,2526.667,1080.395,2534.894,1070.185,2534.894z"/>
			</g>
			<g>
				<path style="fill:#010173;" d="M1076.044,2512.467c-9.517,0-17.637-7.251-18.535-16.914
					c-0.952-10.249,6.582-19.326,16.831-20.278c110.762-10.288,222.383-96.27,223.496-97.139c5.552-4.312,13.066-5.142,19.419-2.144
					c0.976,0.459,101.816,46.924,262.637,45.42c145.015-1.348,254.199-35.522,299.556-93.765
					c20.166-25.894,26.587-54.692,19.087-85.591c-15.298-62.988-209.937-159.98-338.735-224.165
					c-64.497-32.141-120.195-59.898-153.984-81.86c-102.944-66.917-228.853-58.374-230.103-58.276
					c-10.273,0.786-19.204-6.934-19.971-17.195c-0.767-10.261,6.934-19.202,17.197-19.968c5.635-0.432,139.819-9.497,253.188,64.194
					c32.002,20.801,86.821,48.118,150.293,79.751c192.046,95.698,340.371,174.78,358.325,248.721
					c10.181,41.909,1.226,82.466-25.893,117.29c-53.154,68.257-169.858,106.655-328.618,108.13
					c-141.382,1.211-237.646-32.065-268.428-44.492c-30.029,21.689-130.025,88.535-234.019,98.198
					C1077.202,2512.438,1076.62,2512.467,1076.044,2512.467z"/>
			</g>
			<g>
				<path style="fill:#010173;" d="M1301.921,2409.952c-18.213-6.79-35.538-15.675-52.593-24.962
					c-17.639-11.067-36.243-16.699-47.525-36.736c-0.612-1.099,0.01-2.541,1.229-2.85c11.93-3.192,21.826-1.659,31.233,1.013
					c28.133,7.774,56.076,16.606,82.393,29.304C1337.413,2386.552,1323.941,2417.53,1301.921,2409.952L1301.921,2409.952z"/>
			</g>
		</g>
	</g>
</g>
</svg>
